<svg width="244" height="71" viewBox="0 0 244 71" fill="none" xmlns="http://www.w3.org/2000/svg">
<path d="M193.076 30.0822L187.805 41.5301L183.677 30.0822H168.299L180.664 56.9353L174.176 71H188.809L207.671 30.0822H193.076ZM46.2746 0C35.8077 7.54306 26.1151 16.1039 17.3393 25.5569V13.8408H0V53.9895C12.3623 34.9493 28.0338 18.2703 46.2746 4.74004V0ZM229.419 30.0822V33.5808C226.586 30.8148 222.958 29.4546 219.664 29.4546C213.367 29.4546 206.731 34.4125 206.731 45.7371C206.731 58.0258 213.872 62.2785 219.754 62.2785C222.793 62.2785 226.469 60.8497 229.419 58.1401V61.0036H244V30.0822H229.419ZM225.418 50.308C223.13 50.308 221.27 48.628 221.27 45.8437C221.27 42.9467 223.13 41.3382 225.418 41.3382C228.114 41.3382 229.667 43.3518 229.667 45.8437C229.667 48.3401 227.728 50.308 225.418 50.308ZM151.042 30.0822V33.5808C148.209 30.8148 144.599 29.4546 141.284 29.4546C135.007 29.4546 128.373 34.4125 128.373 45.7371C128.373 58.0258 135.508 62.2785 141.407 62.2785C144.418 62.2785 148.085 60.8497 151.042 58.1401V61.0036H165.652V30.0822H151.042ZM147.089 50.308C144.776 50.308 142.912 48.628 142.912 45.8437C142.912 42.9467 144.776 41.3382 147.089 41.3382C149.769 41.3382 151.292 43.3518 151.292 45.8437C151.294 48.3401 149.359 50.308 147.089 50.308ZM69.8206 30.0822V33.5808C66.9673 30.8148 63.3744 29.4546 60.0881 29.4546C53.7883 29.4546 47.1515 34.4125 47.1515 45.7371C47.1515 58.0258 54.3236 62.2785 60.1856 62.2785C63.225 62.2785 66.9002 60.8497 69.8206 58.1401V61.0036H84.4194V30.0822H69.8206ZM65.8526 50.308C63.5498 50.308 61.7091 48.628 61.7091 45.8437C61.7091 42.9467 63.5513 41.3382 65.8526 41.3382C68.5549 41.3382 70.0753 43.3518 70.0753 45.8437C70.0753 48.3401 68.1431 50.308 65.8526 50.308ZM112.891 29.348C109.657 29.348 106.116 30.7691 103.313 33.558V13.9612H88.9715V61.0066H103.313V57.4348C106.311 60.3288 109.975 61.8992 112.487 61.8992C118.264 61.8992 125.675 58.0243 125.675 45.7355C125.674 34.4094 119.112 29.348 112.891 29.348ZM107.227 50.1176C104.963 50.1176 103.05 48.1223 103.05 45.635C103.05 43.1462 104.577 41.128 107.227 41.128C109.574 41.128 111.416 42.7487 111.416 45.635C111.415 48.4254 109.574 50.1176 107.227 50.1176Z" fill="#292D36"/>
<path d="M35.2091 40.4652C29.1796 46.8799 23.653 53.7482 18.6781 61.0095H47.891L35.2091 40.4652Z" fill="#292D36"/>
<path d="M0.126325 61.0092H4.59153C15.7113 43.1894 29.8102 27.4075 46.2744 14.3506V9.49937C27.8646 23.6479 12.1586 41.1245 0.126325 61.0092ZM9.11468 61.0092H13.6851C22.7589 47.2734 33.7602 34.91 46.2744 24.2434V19.2506C31.8097 31.1661 19.2361 45.2355 9.11468 61.0092Z" fill="#292D36"/>
</svg>
